HIERARCHY
ROOT Hips
{
  OFFSET -68.8459 97.676 -4.08987
  CHANNELS 6 Xposition Yposition Zposition Zrotation Xrotation Yrotation
  JOINT RightUpLeg
  {
    OFFSET -8.9458 -8.66707 0.101652
    CHANNELS 3 Zrotation Xrotation Yrotation
    JOINT RightLeg
    {
      OFFSET 0 -44.4227 1.3727
      CHANNELS 3 Zrotation Xrotation Yrotation
      JOINT RightFoot
      {
        OFFSET 0.253549 -42.0924 -1.46059
        CHANNELS 3 Zrotation Xrotation Yrotation
        JOINT RightToes
        {
          OFFSET 0.04 -4.41509 8.4991
          CHANNELS 3 Zrotation Xrotation Yrotation
          End Site
          {
            OFFSET -0.08 -0.137448 9.77979
          }
        }
      }
    }
  }
  JOINT Spine
  {
    OFFSET 0 11.8905 0
    CHANNELS 3 Zrotation Xrotation Yrotation
    JOINT Spine1
    {
      OFFSET 0 25.6574 0.127663
      CHANNELS 3 Zrotation Xrotation Yrotation
      JOINT HEad
      {
        OFFSET 0 8.73416 0.011341
        CHANNELS 3 Zrotation Xrotation Yrotation
        End Site
        {
          OFFSET -0.29 12.7742 2.51395
        }
      }
      JOINT LeftShoulder1
      {
        OFFSET 8.99 -0.362252 -0.22
        CHANNELS 3 Zrotation Xrotation Yrotation
        JOINT LeftArm
        {
          OFFSET 10.2827 -0.00338 0.322123
          CHANNELS 3 Zrotation Xrotation Yrotation
          JOINT LeftForeArm
          {
            OFFSET 32.7669 0.099144 -1.42434
            CHANNELS 3 Zrotation Xrotation Yrotation
            JOINT LeftHand
            {
              OFFSET 27.5643 0.085362 1.02216
              CHANNELS 3 Zrotation Xrotation Yrotation
              End Site
              {
                OFFSET 16.7443 -0.6 1.50291
              }
            }
          }
        }
      }
      JOINT RightShoulder
      {
        OFFSET -8.99 -0.362252 -0.22
        CHANNELS 3 Zrotation Xrotation Yrotation
        JOINT RightArm
        {
          OFFSET -10.2827 -0.00338 0.322123
          CHANNELS 3 Zrotation Xrotation Yrotation
          JOINT RightForeArm
          {
            OFFSET -32.8971 0.099144 -1.42434
            CHANNELS 3 Zrotation Xrotation Yrotation
            JOINT RightHand
            {
              OFFSET -27.4921 0.085362 1.02216
              CHANNELS 3 Zrotation Xrotation Yrotation
              End Site
              {
                OFFSET -16.6312 -0.6 1.50291
              }
            }
          }
        }
      }
    }
  }
  JOINT LeftUpLeg
  {
    OFFSET 8.9458 -8.66707 0.101652
    CHANNELS 3 Zrotation Xrotation Yrotation
    JOINT LeftLeg
    {
      OFFSET 0 -44.4227 1.3727
      CHANNELS 3 Zrotation Xrotation Yrotation
      JOINT LeftFoot
      {
        OFFSET -0.253549 -42.0924 -1.46059
        CHANNELS 3 Zrotation Xrotation Yrotation
        JOINT LeftToes
        {
          OFFSET -0.04 -4.41509 8.4991
          CHANNELS 3 Zrotation Xrotation Yrotation
          End Site
          {
            OFFSET 0.08 -0.047448 9.77979
          }
        }
      }
    }
  }
}
MOTION
Frames:	7
Frame Time:	0.0166667
-68.8575 87.2733 21.6917 7.52428 0.606634 99.5661 -25.5888 -25.0769 -0.918446 7.76231 41.58 0.272585 10.6161 15.9359 -2.19883 -15.717 -54.2583 -0.828727 4.38776 8.63458 -3.0607 0.721418 16.5933 -4.67263 12.7844 -0.911862 -28.1021 1.4828e-032 -2.13694e-015 3.97569e-016 -81.1986 -0.154422 -52.3444 -15.5068 40.7761 -108.627 6.54677 9.62745 -1.04006 9.52513 0.200349 -1.31421 28.2869 -15.6371 58.5883 -11.5591 -29.1259 36.0039 -25.4538 4.54969 19.911 18.4686 -11.1882 -11.5652 -26.009 57.2971 9.49185 -17.2025 18.3039 3.77973 58.2901 -61.0889 38.8244 
-68.8718 87.4033 22.1346 7.82802 0.502671 99.3885 -25.0334 -24.8257 -1.44428 7.23707 41.3094 0.701787 10.2503 17.3812 -2.24305 -16.3971 -56.3992 -0.916952 4.54576 8.78444 -3.31284 1.09374 16.8533 -5.20298 11.4761 -0.629015 -26.9689 -1.18106e-032 -1.70209e-015 -3.97569e-016 -81.1315 0.410028 -51.2016 -15.3076 40.015 -108.199 6.54677 9.62745 -1.04006 12.0361 -0.0873479 -3.30882 38.0263 -18.2953 58.3944 -5.77396 -17.5028 55.5233 -26.8238 4.92027 17.091 18.3127 -10.4331 -10.6357 -25.2689 57.4183 7.46239 -18.2254 18.2378 4.00521 59.4178 -62.1843 39.0067 
-68.9798 87.572 22.466 8.09813 0.418965 99.0756 -24.5244 -24.565 -1.74727 6.81063 40.7572 1.04949 9.86289 18.7102 -2.26403 -16.9309 -57.9656 -1.02405 4.60971 8.9166 -3.47617 1.29073 17.0811 -5.53944 10.4304 -0.362237 -25.9076 -3.97569e-016 -3.35449e-016 3.97569e-016 -80.7289 0.941247 -50.2234 -15.1186 39.3152 -107.823 6.54677 9.62745 -1.04006 14.3904 -0.421594 -5.07934 47.3488 -21.7549 57.7042 -2.5385 -3.63143 71.0755 -28.5944 5.07413 15.1068 18.2889 -9.57055 -9.57614 -24.5064 57.1634 6.07848 -18.9484 18.6021 4.23019 61.3665 -63.5357 39.847 
-69.179 87.7905 22.682 8.26506 0.331691 98.7855 -24.1102 -24.301 -1.66126 6.7166 39.9687 1.03574 9.51691 19.5253 -2.2468 -17.1166 -58.3955 -1.10508 4.61558 9.00344 -3.62714 1.36532 17.2267 -5.84538 9.79099 -0.0271526 -24.8803 3.97569e-016 1.36664e-015 -0 -80.1651 1.3589 -49.43 -14.977 38.8168 -107.558 6.54677 9.62745 -1.04006 16.582 -0.795616 -6.7006 55.9378 -25.6988 57.0677 -1.68826 10.1044 83.6965 -30.0141 5.1746 13.7673 18.3094 -8.70659 -8.5964 -23.4108 56.4063 5.11092 -19.4531 19.7426 4.53658 65.4769 -65.3854 42.5242 
-69.4663 88.0937 22.7876 8.30475 0.222418 98.5662 -23.759 -24.0281 -1.24963 6.85377 38.9729 0.853616 9.29225 19.4716 -2.18942 -16.7454 -57.0943 -1.11743 4.5823 9.03451 -3.80891 1.39292 17.2745 -6.22588 9.55886 0.394169 -23.847 -3.97569e-016 7.48238e-015 -2.48481e-016 -79.6591 1.60434 -48.7787 -14.9043 38.6095 -107.456 6.54677 9.62745 -1.04006 18.5043 -1.18687 -8.16746 64.0203 -29.993 56.8686 -2.36746 22.6618 94.6416 -30.6246 5.27941 13.0029 18.3285 -7.85381 -7.84984 -21.9448 55.0329 4.29013 -19.6967 21.6013 4.9079 72.1109 -67.3777 47.5835 
-69.8429 88.5139 22.7864 8.22004 0.0632292 98.3574 -23.4107 -23.7591 -0.681363 7.0198 37.7869 0.897815 9.26652 18.2455 -2.09201 -15.6395 -53.4177 -1.06088 4.52574 9.01709 -4.02008 1.42917 17.2391 -6.68601 9.66323 0.841654 -22.8122 3.97569e-016 2.46617e-015 -3.97569e-016 -79.3488 1.66667 -48.2329 -14.8949 38.6893 -107.519 6.54677 9.62745 -1.04006 20.0381 -1.54924 -9.39365 71.7983 -34.4946 57.3235 -3.92669 33.8103 104.588 -30.5205 5.37656 12.7073 18.3525 -6.98067 -7.43321 -20.4061 53.0399 3.4938 -19.6346 23.7105 5.2458 79.8378 -68.8644 53.9671 
-70.3086 89.065 22.686 8.01701 -0.163477 98.0567 -23.043 -23.5133 -0.106471 7.08907 36.3959 1.43138 9.50517 15.7202 -1.95322 -13.7387 -46.8752 -1.00971 4.44478 8.96203 -4.22757 1.48432 17.1389 -7.15292 10.0287 1.23955 -21.8221 -7.95139e-016 4.96962e-016 1.98785e-016 -79.233 1.6084 -47.7865 -14.9223 38.9604 -107.68 6.54677 9.62745 -1.04006 21.1463 -1.83028 -10.2672 72.0581 -33.6198 55.0346 -5.66145 35.3903 112.153 -29.4779 5.78168 11.7912 18.4043 -6.05282 -7.37053 -19.1734 50.5218 2.7639 -19.3387 25.4861 5.45765 86.0464 -69.603 59.3148 
